<?xml version="1.0" encoding="utf-8"?>
<!-- Generator: Adobe Illustrator 16.0.4, SVG Export Plug-In . SVG Version: 6.00 Build 0)  -->
<!DOCTYPE svg PUBLIC "-//W3C//DTD SVG 1.1//EN" "http://www.w3.org/Graphics/SVG/1.1/DTD/svg11.dtd">
<svg version="1.1" id="Layer_1" xmlns="http://www.w3.org/2000/svg" xmlns:xlink="http://www.w3.org/1999/xlink" x="0px" y="0px"
	 width="12.561px" height="9.289px" viewBox="0 0 12.561 9.289" enable-background="new 0 0 12.561 9.289" xml:space="preserve">
<path fill="#F8B231" d="M9.779,2.537C9.582,2.484,9.421,2.607,9.421,2.812v1.66c0,0.204-0.161,0.414-0.358,0.467L8.209,5.167
	C8.012,5.22,7.851,5.096,7.851,4.892v-2.5c0-0.204-0.161-0.414-0.358-0.467L5.069,1.274C4.872,1.222,4.71,1.346,4.71,1.549v2.939
	c0,0.204-0.161,0.414-0.358,0.467L3.499,5.184C3.301,5.237,3.14,5.113,3.14,4.909v-3.78c0-0.204-0.161-0.414-0.358-0.467
	l-2.424-0.65C0.161-0.041,0,0.083,0,0.287v8.715C0,9.206,0.161,9.33,0.358,9.277l2.424-0.649C2.979,8.575,3.14,8.531,3.14,8.531
	s0.161-0.043,0.358-0.096l0.854-0.229C4.549,8.153,4.71,8.277,4.71,8.481v0.521c0,0.204,0.161,0.328,0.358,0.275l2.423-0.649
	c0.197-0.053,0.358-0.1,0.358-0.105s0.161-0.052,0.358-0.104l0.854-0.229C9.26,8.136,9.421,8.097,9.421,8.102
	s0.161-0.035,0.358-0.087l2.424-0.649c0.197-0.053,0.358-0.263,0.358-0.467V3.653c0-0.204-0.161-0.415-0.358-0.467L9.779,2.537z"/>
</svg>
