<?xml version="1.0" encoding="utf-8"?>
<!-- Generator: Adobe Illustrator 16.0.4, SVG Export Plug-In . SVG Version: 6.00 Build 0)  -->
<!DOCTYPE svg PUBLIC "-//W3C//DTD SVG 1.1//EN" "http://www.w3.org/Graphics/SVG/1.1/DTD/svg11.dtd">
<svg version="1.1" id="Layer_1" xmlns="http://www.w3.org/2000/svg" xmlns:xlink="http://www.w3.org/1999/xlink" x="0px" y="0px"
	 width="40.514px" height="45.897px" viewBox="0 0 40.514 45.897" enable-background="new 0 0 40.514 45.897" xml:space="preserve">
<g>
	<circle fill="#FFFFFF" cx="20.257" cy="25.64" r="20.257"/>
	<path fill="#F2D6C0" d="M20.251,35.254c0,0,10.29,1.378,11.251-15.194c0,0,2.04,0.562,2.286-2.923s-2.191-2.173-2.191-2.173
		l-0.846-0.242c0,0,0.05-4.621-2.751-5.84c-2.802-1.22-6.136,0.452-7.527,0.278C19.08,8.984,15.4,8.086,13.499,8.757
		c-1.902,0.671-3.411,2.311-3.54,6.327l-1.865-0.476c0,0-1.534,0.932-1.078,2.958c0.457,2.026,1.194,2.702,2.225,2.536
		C9.241,20.102,8.971,34.763,20.251,35.254z"/>
	<circle fill="#D08042" cx="16.358" cy="20.941" r="0.513"/>
	<circle fill="#D08042" cx="13.609" cy="20.427" r="0.513"/>
	<circle fill="#D08042" cx="14.389" cy="22.736" r="0.513"/>
	<circle fill="#D08042" cx="23.875" cy="20.96" r="0.513"/>
	<circle fill="#D08042" cx="26.625" cy="20.447" r="0.513"/>
	<circle fill="#D08042" cx="25.844" cy="22.756" r="0.513"/>
	<path fill="#836C57" d="M15.349,28.856l2.091,0.211l1.339,0.169l1.375,0.072h1.705l1.82-0.45l1.812-0.185
		c0,0-1.616,2.726-5.177,2.713C16.752,31.375,15.349,28.856,15.349,28.856z"/>
	<path fill="#FFFFFF" d="M14.217,26.537c0,0,6.553,2.996,12.424-0.208l-0.968,2.076h-1.322l-0.873,0.451l-1.419,0.211l-1.658,0.241
		h-0.999l-1.289-0.148l-1.31-0.093l-1.734-0.629L14.217,26.537z"/>
	<path fill="#D08042" d="M9.241,16.528c0,0-1.159-7.714,1.828-11.673l0.467-2.825c0,0,3.547-2.524,10.74-1.246
		c5.916,1.082,7.47,4.495,7.47,4.495s3.012,0.51,1.195,12.075c0,0,0.421-6.893-2.391-8.465c-0.003,0.26-3.746-0.458-3.746-0.458
		s-2.406,0.653-4.222,0.702c-1.817,0.049-5.233-0.702-5.233-0.702s-2.5-0.037-3.813,1.609c-1.313,1.646-1.995,6.648-1.995,6.648
		L9.241,16.528z"/>
	<g>
		<path fill="#1D1D1B" d="M20.313,31.755c-2.757,0-4.384-1.458-5.263-2.682c-0.941-1.311-1.236-2.61-1.248-2.665
			c-0.032-0.144,0.025-0.293,0.146-0.379s0.279-0.091,0.406-0.015c0.023,0.014,2.43,1.448,5.97,1.448
			c2.09,0,4.162-0.493,6.156-1.465c0.129-0.063,0.283-0.045,0.395,0.046c0.111,0.091,0.159,0.239,0.123,0.378
			c-0.014,0.055-0.359,1.35-1.348,2.658C24.327,30.831,22.482,31.755,20.313,31.755z M14.787,27.057
			c0.178,0.448,0.459,1.031,0.876,1.607c1.131,1.562,2.696,2.355,4.65,2.355c1.956,0,3.554-0.802,4.749-2.383
			c0.439-0.582,0.74-1.164,0.934-1.609c-1.846,0.778-3.75,1.173-5.672,1.173C17.785,28.2,15.824,27.519,14.787,27.057z"/>
	</g>
	<g>
		<path fill="#1D1D1B" d="M19.507,29.738c-0.043,0-0.086-0.001-0.13-0.004c-0.354-0.02-0.682-0.111-0.972-0.192
			c-0.193-0.054-0.375-0.105-0.543-0.129c-0.239-0.036-0.478-0.043-0.708-0.05c-0.295-0.009-0.573-0.018-0.836-0.082
			c-0.56-0.137-0.739-0.232-0.967-0.373c-0.11-0.068-0.224-0.138-0.474-0.239c-0.188-0.076-0.28-0.291-0.204-0.479
			c0.076-0.188,0.291-0.279,0.479-0.204c0.308,0.125,0.462,0.22,0.585,0.296c0.155,0.095,0.267,0.165,0.754,0.283
			c0.188,0.046,0.429,0.053,0.684,0.061c0.241,0.007,0.513,0.016,0.794,0.058c0.214,0.031,0.427,0.091,0.633,0.149
			c0.266,0.074,0.542,0.151,0.815,0.166c0.229,0.013,0.484-0.027,0.753-0.07c0.23-0.037,0.469-0.075,0.72-0.085
			c0.223-0.009,0.446,0.009,0.662,0.026c0.286,0.022,0.556,0.044,0.816,0.006c0.238-0.034,0.485-0.129,0.747-0.228
			c0.209-0.08,0.427-0.163,0.659-0.223c0.214-0.055,0.433-0.085,0.644-0.115c0.287-0.04,0.557-0.078,0.803-0.171
			c0.19-0.073,0.403,0.022,0.476,0.212s-0.022,0.403-0.212,0.476c-0.324,0.124-0.65,0.169-0.965,0.213
			c-0.199,0.028-0.388,0.054-0.561,0.099c-0.192,0.05-0.381,0.121-0.58,0.197c-0.288,0.11-0.585,0.224-0.904,0.27
			c-0.341,0.049-0.666,0.023-0.979-0.001c-0.203-0.016-0.395-0.031-0.575-0.024c-0.208,0.008-0.415,0.041-0.634,0.076
			C20.033,29.696,19.771,29.738,19.507,29.738z"/>
	</g>
	<g>
		<path fill="#1D1D1B" d="M13.118,17.933c-0.174,0-0.329-0.124-0.361-0.301c-0.008-0.045-0.079-0.456,0.032-0.917
			c0.158-0.662,0.617-1.099,1.291-1.23c1.428-0.279,2.14,0.836,2.315,1.465c0.055,0.196-0.06,0.399-0.255,0.454
			s-0.399-0.06-0.454-0.255c-0.034-0.117-0.369-1.155-1.465-0.94c-0.908,0.177-0.759,1.178-0.739,1.292
			c0.035,0.2-0.098,0.391-0.297,0.427C13.162,17.931,13.14,17.933,13.118,17.933z"/>
	</g>
	<g>
		<path fill="#1D1D1B" d="M27.273,17.934c-0.022,0-0.044-0.002-0.067-0.006c-0.199-0.037-0.332-0.228-0.295-0.428
			c0.02-0.114,0.168-1.114-0.739-1.292c-1.096-0.214-1.431,0.823-1.465,0.942c-0.057,0.195-0.26,0.308-0.455,0.252
			c-0.195-0.056-0.309-0.257-0.254-0.453c0.176-0.629,0.887-1.744,2.316-1.465c0.674,0.132,1.132,0.568,1.291,1.23
			c0.11,0.46,0.04,0.871,0.032,0.917C27.602,17.81,27.447,17.934,27.273,17.934z"/>
	</g>
	<g>
		<path fill="#1D1D1B" d="M31.261,18.83h-0.638c-0.106,0-0.207-0.045-0.277-0.125c-0.07-0.08-0.102-0.186-0.088-0.291
			c0.002-0.018,0.233-1.829,0.117-3.838c-0.104-1.796-0.511-4.125-1.857-5.013c-0.704-0.465-1.6-0.69-2.738-0.69
			c-1.075,0-2.196,0.2-3.186,0.377c-0.826,0.148-1.54,0.276-2.121,0.276c-0.604,0-1.297-0.145-2.03-0.297
			c-0.88-0.183-1.877-0.391-2.915-0.391c-1.052,0-1.995,0.212-2.883,0.649c-1.472,0.725-2.036,3.083-2.25,4.934
			c-0.24,2.074-0.1,3.993-0.098,4.012c0.008,0.102-0.027,0.203-0.097,0.278c-0.07,0.075-0.168,0.118-0.27,0.118H9.314
			c-0.195,0-0.355-0.151-0.368-0.345c-0.204-3.254-0.23-5.717-0.085-7.75c0.198-2.776,0.719-4.59,1.592-5.546
			c0.468-0.613,0.425-1.153,0.38-1.725c-0.055-0.688-0.117-1.466,0.919-2.042C13.404,0.505,15.711,0,18.249,0
			c4.362,0,9.864,1.56,11.755,4.981c1.299,0.547,1.941,2.913,1.96,7.219c0.014,3.17-0.334,6.272-0.338,6.304
			C31.605,18.689,31.448,18.83,31.261,18.83z M18.249,0.736c-2.415,0-4.595,0.472-6.138,1.33c-0.623,0.346-0.594,0.699-0.543,1.34
			c0.05,0.625,0.112,1.402-0.541,2.246c-0.006,0.009-0.014,0.017-0.021,0.025C9.495,7.312,9.421,12.32,9.544,15.781
			c0.022-0.453,0.059-0.937,0.116-1.434c0.341-2.963,1.235-4.82,2.658-5.521c0.992-0.488,2.041-0.725,3.208-0.725
			c1.114,0,2.15,0.216,3.065,0.406c0.725,0.151,1.352,0.281,1.88,0.281c0.516,0,1.199-0.123,1.991-0.264
			c1.02-0.182,2.176-0.389,3.316-0.389c1.287,0,2.315,0.266,3.144,0.812c1.739,1.148,2.172,4.054,2.219,6.365
			c0.052-0.947,0.091-2.028,0.085-3.116c-0.018-3.872-0.597-6.266-1.589-6.566c-0.095-0.029-0.174-0.095-0.22-0.183
			c-0.729-1.402-2.249-2.6-4.396-3.462C23.016,1.181,20.61,0.736,18.249,0.736z"/>
	</g>
	<g>
		<path fill="#1D1D1B" d="M8.909,20.469c-0.665,0-1.27-0.414-1.702-1.18c-0.369-0.656-0.597-1.528-0.625-2.393
			c-0.017-0.542,0.035-1.53,0.583-2.073c0.429-0.425,0.877-0.619,1.33-0.577c0.641,0.06,1.01,0.571,1.05,0.629
			c0.116,0.167,0.073,0.396-0.094,0.512c-0.167,0.115-0.397,0.073-0.512-0.094c0,0-0.209-0.289-0.517-0.315
			c-0.224-0.019-0.473,0.105-0.738,0.368c-0.508,0.503-0.519,2.366,0.166,3.582c0.36,0.639,0.795,0.9,1.295,0.775
			c0.197-0.049,0.397,0.071,0.446,0.268s-0.07,0.397-0.268,0.447C9.183,20.452,9.044,20.469,8.909,20.469z"/>
	</g>
	<path fill="none" stroke="#1D1D1B" stroke-width="10" stroke-linecap="round" stroke-linejoin="round" stroke-miterlimit="10" d="
		M9.233,20.06"/>
	<g>
		<path fill="#1D1D1B" d="M11.536,13.46c-0.097,0-0.194-0.038-0.267-0.114c-0.14-0.147-0.135-0.38,0.012-0.521
			c0.074-0.07,1.845-1.715,5.562-1.323c0.202,0.021,0.349,0.203,0.328,0.405s-0.203,0.35-0.405,0.328
			c-3.381-0.357-4.96,1.108-4.976,1.123C11.718,13.427,11.627,13.46,11.536,13.46z"/>
	</g>
	<g>
		<path fill="#1D1D1B" d="M28.947,13.46c-0.091,0-0.182-0.033-0.253-0.101c-0.023-0.021-1.631-1.478-4.977-1.124
			c-0.204,0.022-0.384-0.125-0.405-0.328c-0.021-0.202,0.125-0.383,0.328-0.405c3.717-0.393,5.488,1.252,5.562,1.323
			c0.147,0.14,0.153,0.374,0.012,0.521C29.141,13.422,29.044,13.46,28.947,13.46z"/>
	</g>
	<path fill="#F2D6C0" d="M13.259,32.777l-0.296,3.216c0,0,2.98,2.568,5.3,1.942c0.241,0.102,1.286,4.014,1.286,4.014l1.963-3.756
		c0,0,2.815,0.376,5.632-2.291l-0.174-2.864c0,0-2.83,2.327-6.916,2.243C15.967,35.199,13.259,32.777,13.259,32.777z"/>
	<g>
		<path fill="#1D1D1B" d="M20.352,24.91c-1.22,0-2.133-0.604-2.19-0.644c-0.168-0.114-0.212-0.343-0.098-0.511
			c0.114-0.168,0.343-0.212,0.511-0.098c0.076,0.051,1.777,1.16,3.489-0.045c0.166-0.117,0.396-0.077,0.513,0.089
			c0.117,0.166,0.078,0.396-0.089,0.513C21.744,24.737,21.003,24.91,20.352,24.91z"/>
	</g>
	<g>
		<path fill="#1D1D1B" d="M20.402,35.622c-2.865,0-5.269-0.957-7.143-2.845c-2.308-2.325-3.379-5.664-3.872-8.055
			c-0.531-2.576-0.523-4.581-0.522-4.666c0.001-0.202,0.166-0.365,0.368-0.365c0.001,0,0.001,0,0.002,0
			c0.203,0.001,0.367,0.167,0.366,0.371c0,0.02-0.007,2.025,0.51,4.528c0.473,2.289,1.494,5.478,3.671,7.669
			c1.731,1.742,3.958,2.625,6.619,2.625s4.883-0.883,6.605-2.625c2.167-2.192,3.174-5.38,3.637-7.669
			c0.506-2.503,0.49-4.508,0.49-4.528c-0.001-0.114,0.051-0.223,0.14-0.293c0.089-0.071,0.207-0.096,0.317-0.068
			c0.5,0.125,0.936-0.136,1.295-0.775c0.309-0.547,0.507-1.316,0.531-2.055c0.022-0.696-0.117-1.281-0.365-1.526
			c-0.267-0.265-0.517-0.388-0.742-0.367c-0.303,0.028-0.51,0.311-0.513,0.314c-0.115,0.167-0.344,0.21-0.512,0.094
			c-0.167-0.115-0.209-0.345-0.094-0.512c0.04-0.058,0.41-0.57,1.05-0.63c0.453-0.042,0.9,0.152,1.33,0.577
			c0.548,0.542,0.6,1.532,0.583,2.073c-0.028,0.865-0.256,1.737-0.625,2.393c-0.423,0.752-1.013,1.165-1.664,1.18
			c-0.02,0.725-0.108,2.33-0.496,4.252c-0.481,2.392-1.538,5.731-3.836,8.056C25.667,34.665,23.267,35.622,20.402,35.622z"/>
	</g>
	<path fill="#C8E3F3" d="M5.396,38.749c0,0,14.192,14.993,29.38,0.348l-5.09-1.319l-1.717-2.452c0,0-2.681,2.878-6.126,2.857
		L19.46,41.95l-1.063-3.788c0,0-3.752-0.44-6.724-2.88l-1.254,2.249L5.396,38.749z"/>
	<g>
		<path fill="#1D1D1B" d="M14.473,20.428c-1.433,0-2.555-0.442-3.336-1.314c-1.415-1.58-1.169-3.979-1.158-4.081l0.019-0.168
			l0.14-0.095c0.082-0.056,2.035-1.363,4.756-1.363c1.508,0,2.957,0.405,4.305,1.204l0.157,0.093l0.021,0.182
			c0.011,0.098,0.257,2.428-1.15,4.053c-0.815,0.941-2.005,1.441-3.537,1.488C14.616,20.427,14.544,20.428,14.473,20.428z
			 M10.7,15.286c-0.024,0.54-0.01,2.228,0.988,3.339c0.635,0.708,1.573,1.066,2.785,1.066c0.063,0,0.128-0.001,0.194-0.003
			c1.317-0.04,2.328-0.455,3.002-1.234c0.992-1.145,1.012-2.771,0.988-3.308c-1.186-0.667-2.451-1.005-3.764-1.005
			C12.803,14.142,11.182,14.999,10.7,15.286z"/>
	</g>
	<g>
		<path fill="#1D1D1B" d="M26.029,20.428c-0.069,0.003-0.144-0.001-0.216-0.003c-1.532-0.046-2.722-0.546-3.537-1.487
			c-1.408-1.625-1.162-3.955-1.151-4.053l0.021-0.182l0.157-0.094c1.349-0.798,2.797-1.204,4.305-1.204
			c2.72,0,4.674,1.308,4.755,1.364l0.141,0.095l0.019,0.168c0.011,0.102,0.257,2.502-1.158,4.081
			C28.583,19.985,27.461,20.428,26.029,20.428z M21.845,15.146c-0.023,0.538-0.001,2.171,0.99,3.312c0.675,0.776,1.684,1.19,3,1.23
			c0.065,0.002,0.129,0.003,0.194,0.003c1.214,0,2.152-0.36,2.787-1.069c1-1.115,1.011-2.796,0.986-3.336
			c-0.484-0.286-2.112-1.145-4.194-1.145C24.295,14.142,23.03,14.479,21.845,15.146z"/>
	</g>
	<g>
		<path fill="#1D1D1B" d="M19.03,15.025c0.02,1.424-0.075,1.502-0.075,1.502s0.473-0.619,1.295-0.619
			c0.822,0,1.294,0.619,1.294,0.619l-0.178-1.502l0.692-0.409c0,0-0.864,0.311-1.821,0.311s-1.796-0.311-1.796-0.311L19.03,15.025z"
			/>
		<path fill="#1D1D1B" d="M21.545,16.896c-0.111,0-0.22-0.051-0.291-0.143c-0.019-0.023-0.385-0.476-1.003-0.476
			c-0.617,0-0.983,0.45-1.004,0.476c-0.017,0.021-0.036,0.041-0.056,0.058c-0.144,0.12-0.355,0.112-0.49-0.018
			c-0.115-0.109-0.144-0.277-0.082-0.417c0.013-0.061,0.051-0.316,0.045-1.158l-0.433-0.3c-0.152-0.106-0.202-0.309-0.116-0.473
			c0.085-0.165,0.28-0.24,0.454-0.175c0.007,0.003,0.793,0.288,1.668,0.288c0.877,0,1.689-0.286,1.697-0.289
			c0.179-0.063,0.377,0.019,0.458,0.19s0.018,0.377-0.146,0.474l-0.485,0.287l0.146,1.231c0.005,0.025,0.008,0.05,0.008,0.077
			c0,0.201-0.162,0.365-0.362,0.368C21.55,16.896,21.548,16.896,21.545,16.896z M19.401,15.229c0.001,0.193,0,0.36-0.002,0.505
			c0.233-0.11,0.519-0.193,0.852-0.193c0.322,0,0.599,0.077,0.828,0.183l-0.057-0.486c-0.243,0.034-0.509,0.058-0.784,0.058
			C19.941,15.295,19.657,15.268,19.401,15.229z"/>
	</g>
	<g>
		<path fill="#1D1D1B" d="M10.325,16.228c-0.006,0-0.013,0-0.02,0c-0.196-0.01-0.349-0.172-0.349-0.368v-0.004
			c-0.014-0.049-0.121-0.181-0.473-0.279c-0.139-0.039-0.242-0.155-0.264-0.297c-0.109-0.692-0.009-0.809,0.063-0.894
			c0.085-0.099,0.209-0.151,0.346-0.134c0.016,0.001,0.042,0.001,0.076,0.001c0.388,0,1.33-0.062,2.122-0.297
			c0.192-0.058,0.395,0.05,0.456,0.241c0.061,0.191-0.042,0.396-0.232,0.46l-1.357,0.46v0.707c0.001,0.033,0,0.059-0.002,0.075
			C10.671,16.087,10.512,16.228,10.325,16.228z"/>
	</g>
	<g>
		<path fill="#1D1D1B" d="M30.157,16.228c-0.188,0-0.346-0.141-0.366-0.329c-0.002-0.016-0.003-0.042-0.002-0.075v-0.707
			l-1.357-0.461c-0.19-0.064-0.293-0.269-0.232-0.46c0.061-0.191,0.263-0.299,0.456-0.242c0.792,0.236,1.734,0.298,2.122,0.298
			c0.034,0,0.06,0,0.075-0.001c0.137-0.017,0.261,0.035,0.346,0.134c0.073,0.085,0.173,0.202,0.063,0.894
			c-0.022,0.142-0.125,0.258-0.264,0.297c-0.352,0.099-0.458,0.23-0.473,0.279v0.004c0,0.196-0.153,0.357-0.349,0.368
			C30.169,16.228,30.163,16.228,30.157,16.228z"/>
	</g>
	<path fill="#FFD979" d="M31.942,12.902l2.083-1.039c0,0-0.538,0.811-0.309,1.149c0.307,0.454,0.834,0.859,0.834,0.859l-2.639,1.326
		L31.942,12.902z"/>
	<polygon fill="#F2D6C0" points="33.788,11.937 33.628,13.092 34.814,13.945 35.659,12.269 	"/>
	<path fill="#836C57" d="M34.55,12.072c0,0-0.528,0.869,0.656,1.02l0.314-0.848L34.55,12.072z"/>
	<g>
		<path fill="#1D1D1B" d="M31.471,15.925c-0.132,0-0.26-0.072-0.326-0.197c-0.094-0.18-0.025-0.403,0.155-0.497l3.245-1.701
			l0.64-1.165l-1.272-0.145l-1.931,1.002c-0.18,0.093-0.403,0.023-0.497-0.157c-0.094-0.181-0.023-0.403,0.157-0.497l2.03-1.054
			c0.065-0.034,0.139-0.047,0.211-0.039l1.93,0.219c0.122,0.014,0.229,0.088,0.286,0.197c0.057,0.109,0.055,0.239-0.004,0.347
			l-0.958,1.743c-0.035,0.063-0.088,0.115-0.152,0.149l-3.343,1.752C31.587,15.912,31.528,15.925,31.471,15.925z"/>
	</g>
	<g>
		<path fill="#1D1D1B" d="M34.814,14.173c-0.019,0-0.038-0.001-0.058-0.004c-0.75-0.118-1.239-0.418-1.451-0.895
			c-0.33-0.737,0.17-1.542,0.228-1.632c0.111-0.17,0.339-0.219,0.509-0.108c0.17,0.111,0.219,0.338,0.109,0.509
			c-0.097,0.152-0.316,0.615-0.173,0.933c0.131,0.29,0.558,0.414,0.893,0.466c0.201,0.031,0.338,0.22,0.307,0.42
			C35.149,14.043,34.993,14.173,34.814,14.173z"/>
	</g>
	<g>
		<path fill="#1D1D1B" d="M20.308,45.844c-5.424,0-10.524-2.112-14.36-5.948C2.112,36.061,0,30.961,0,25.536
			c0-6.837,3.409-13.173,9.119-16.95l0.528,0.799c-5.441,3.599-8.689,9.637-8.689,16.151c0,5.169,2.013,10.028,5.667,13.683
			s8.514,5.668,13.683,5.668s10.028-2.013,13.683-5.668s5.667-8.514,5.667-13.683c0-4.532-1.599-8.939-4.502-12.409l0.734-0.614
			c3.047,3.642,4.725,8.267,4.725,13.023c0,5.425-2.112,10.524-5.948,14.36C30.833,43.732,25.732,45.844,20.308,45.844z"/>
	</g>
	<g>
		<path fill="#1D1D1B" d="M34.411,12.286c-0.987-1.05-2.092-1.991-3.284-2.796l0.536-0.793c1.251,0.845,2.41,1.832,3.446,2.934
			L34.411,12.286z"/>
	</g>
	<path fill="#1D1D1B" d="M30.034,37.659c-0.038-0.116-0.747-2.184-2.019-2.717l-0.254-0.106l-0.174,0.213
		c-0.004,0.005-0.084,0.102-0.228,0.254c-0.14-0.777-0.086-1.867,0.014-2.568l-0.729-0.104c-0.036,0.245-0.278,2.075,0.106,3.262
		c-0.924,0.822-2.53,1.949-4.4,1.949c-0.157,0-0.316-0.008-0.471-0.024l-0.43-0.044l-0.018-0.009l-0.003,0.006h-0.002l0,0.003
		l-1.719,3.353l-0.948-3.55l0.02-0.064l-0.557,0.057c-0.159,0.017-0.321,0.024-0.483,0.024l0,0c-1.805,0-3.441-1.016-4.447-1.811
		c0.463-1.255,0.203-3.542,0.166-3.838l-0.731,0.09c0.001,0.008,0.096,0.787,0.099,1.664c0.002,0.749-0.062,1.243-0.142,1.568
		c-0.267-0.244-0.418-0.408-0.424-0.415l-0.175-0.193l-0.24,0.101c-0.562,0.235-1.035,0.768-1.406,1.582
		c-0.225,0.493-0.341,0.938-0.373,1.069l-4.673,1.003l0.15,0.721l4.877-1.045c0.016,0.018,0.031,0.035,0.046,0.052
		c1.401,1.588,3.319,3.763,6.882,3.905l0.344,0.014l0.037-0.342c0.087-0.805,0.396-1.997,0.624-2.803l0.869,3.254
		c-0.05,0.4-0.283,2.306-0.274,3.495l0.736-0.006c-0.009-1.135,0.223-3.036,0.27-3.404l1.615-3.15
		c0.089,0.824,0.222,2.048,0.312,2.883l0.037,0.342l0.344-0.014c3.695-0.147,6.119-2.561,7.412-3.98l5.229,1.093l0.15-0.721
		L30.034,37.659z M17.046,41.291c-3.039-0.25-4.758-2.199-6.025-3.636c-0.067-0.076-0.133-0.151-0.198-0.224
		c0.146-0.521,0.513-1.469,1.096-1.874c0.688,0.684,3.019,2.772,5.821,2.773c0.006,0,0.011,0,0.017,0
		C17.553,39.027,17.199,40.307,17.046,41.291z M22.58,41.561c-0.107-0.991-0.251-2.312-0.324-2.984c0.032,0,0.063,0.001,0.096,0.001
		c2.357,0,4.277-1.523,5.206-2.422l0.099-0.085c-0.002-0.002-0.003-0.004-0.005-0.006c0.123-0.122,0.226-0.23,0.305-0.318
		c0.613,0.419,1.095,1.402,1.309,1.951C28.116,38.97,25.908,41.283,22.58,41.561z"/>
</g>
</svg>
